<mxfile host="drawio-plugin" modified="2023-07-02T13:14:43.452Z" agent="5.0 (X11; Linux x86_64) AppleWebKit/537.36 (KHTML, like Gecko) Chrome/104.0.5112.102 Safari/537.36" etag="6XG1ZajSuja0x_lfTwEy" version="20.5.3" type="embed"><diagram name="Seite-1" id="TqAhyppZZSxqjkOO2TOt"><mxGraphModel dx="2532" dy="1052" grid="1" gridSize="10" guides="1" tooltips="1" connect="1" arrows="1" fold="1" page="0" pageScale="1" pageWidth="827" pageHeight="1169" math="0" shadow="0"><root><mxCell id="0"/><mxCell id="1" parent="0"/><mxCell id="97" style="edgeStyle=orthogonalEdgeStyle;rounded=0;orthogonalLoop=1;jettySize=auto;html=1;exitX=0.5;exitY=1;exitDx=0;exitDy=0;entryX=0.5;entryY=0;entryDx=0;entryDy=0;fontColor=#ff69b4;" edge="1" parent="1" source="7" target="20"><mxGeometry relative="1" as="geometry"/></mxCell><mxCell id="98" style="edgeStyle=orthogonalEdgeStyle;rounded=0;orthogonalLoop=1;jettySize=auto;html=1;exitX=0;exitY=0.5;exitDx=0;exitDy=0;entryX=0.5;entryY=0;entryDx=0;entryDy=0;fontColor=#ff69b4;" edge="1" parent="1" source="7" target="21"><mxGeometry relative="1" as="geometry"/></mxCell><mxCell id="99" style="edgeStyle=orthogonalEdgeStyle;rounded=0;orthogonalLoop=1;jettySize=auto;html=1;exitX=1;exitY=0.5;exitDx=0;exitDy=0;entryX=0.5;entryY=0;entryDx=0;entryDy=0;fontColor=#ff69b4;" edge="1" parent="1" source="7" target="22"><mxGeometry relative="1" as="geometry"><Array as="points"><mxPoint x="260" y="360"/><mxPoint x="420" y="360"/></Array></mxGeometry></mxCell><mxCell id="7" value="base" style="rounded=0;whiteSpace=wrap;html=1;" parent="1" vertex="1"><mxGeometry x="140" y="280" width="120" height="60" as="geometry"/></mxCell><mxCell id="8" value="net" style="rounded=0;whiteSpace=wrap;html=1;" parent="1" vertex="1"><mxGeometry x="2500" y="280" width="120" height="60" as="geometry"/></mxCell><mxCell id="172" style="edgeStyle=orthogonalEdgeStyle;rounded=0;orthogonalLoop=1;jettySize=auto;html=1;exitX=0;exitY=0.5;exitDx=0;exitDy=0;entryX=0.5;entryY=0;entryDx=0;entryDy=0;strokeWidth=1;fontColor=#FFFFFF;" edge="1" parent="1" source="9" target="7"><mxGeometry relative="1" as="geometry"/></mxCell><mxCell id="173" style="edgeStyle=orthogonalEdgeStyle;rounded=0;orthogonalLoop=1;jettySize=auto;html=1;exitX=1;exitY=0.5;exitDx=0;exitDy=0;entryX=0.5;entryY=0;entryDx=0;entryDy=0;strokeWidth=1;fontColor=#FFFFFF;" edge="1" parent="1" source="9" target="8"><mxGeometry relative="1" as="geometry"/></mxCell><mxCell id="9" value="sinking" style="rounded=0;whiteSpace=wrap;html=1;" parent="1" vertex="1"><mxGeometry x="1320" y="-60" width="120" height="60" as="geometry"/></mxCell><mxCell id="20" value="controller" style="rounded=0;whiteSpace=wrap;html=1;" parent="1" vertex="1"><mxGeometry x="140" y="410" width="120" height="60" as="geometry"/></mxCell><mxCell id="96" style="edgeStyle=orthogonalEdgeStyle;rounded=0;orthogonalLoop=1;jettySize=auto;html=1;exitX=0.5;exitY=1;exitDx=0;exitDy=0;entryX=0.75;entryY=0;entryDx=0;entryDy=0;fontColor=#ff69b4;" edge="1" parent="1" source="21" target="93"><mxGeometry relative="1" as="geometry"/></mxCell><mxCell id="21" value="model" style="rounded=0;whiteSpace=wrap;html=1;" parent="1" vertex="1"><mxGeometry x="-80" y="410" width="120" height="60" as="geometry"/></mxCell><mxCell id="160" style="edgeStyle=orthogonalEdgeStyle;rounded=0;orthogonalLoop=1;jettySize=auto;html=1;exitX=0.5;exitY=1;exitDx=0;exitDy=0;entryX=0.5;entryY=0;entryDx=0;entryDy=0;strokeWidth=1;fontColor=#FFFFFF;" edge="1" parent="1" source="22" target="158"><mxGeometry relative="1" as="geometry"/></mxCell><mxCell id="22" value="view" style="rounded=0;whiteSpace=wrap;html=1;" parent="1" vertex="1"><mxGeometry x="360" y="410" width="120" height="60" as="geometry"/></mxCell><mxCell id="92" value="&lt;font color=&quot;#ff69b4&quot;&gt;zwei spielmodi&lt;/font&gt;" style="text;html=1;strokeColor=none;fillColor=none;align=center;verticalAlign=middle;whiteSpace=wrap;rounded=0;" vertex="1" parent="1"><mxGeometry x="-530" y="1090" width="60" height="30" as="geometry"/></mxCell><mxCell id="95" value="" style="group" vertex="1" connectable="0" parent="1"><mxGeometry x="-1240" y="560" width="1200" height="410" as="geometry"/></mxCell><mxCell id="93" value="" style="rounded=0;whiteSpace=wrap;html=1;fontColor=#ff69b4;" vertex="1" parent="95"><mxGeometry width="1200" height="410" as="geometry"/></mxCell><mxCell id="24" value="gameState" style="shape=hexagon;perimeter=hexagonPerimeter2;whiteSpace=wrap;html=1;fixedSize=1;" parent="95" vertex="1"><mxGeometry x="400" y="30" width="120" height="80" as="geometry"/></mxCell><mxCell id="25" value="player1" style="text;html=1;strokeColor=none;fillColor=none;align=center;verticalAlign=middle;whiteSpace=wrap;rounded=0;" parent="95" vertex="1"><mxGeometry x="320" y="150" width="60" height="30" as="geometry"/></mxCell><mxCell id="26" value="player2" style="text;html=1;strokeColor=none;fillColor=none;align=center;verticalAlign=middle;whiteSpace=wrap;rounded=0;" parent="95" vertex="1"><mxGeometry x="320" y="200" width="60" height="30" as="geometry"/></mxCell><mxCell id="28" style="edgeStyle=orthogonalEdgeStyle;rounded=0;orthogonalLoop=1;jettySize=auto;html=1;exitX=1;exitY=0.5;exitDx=0;exitDy=0;" parent="95" source="27" target="25" edge="1"><mxGeometry relative="1" as="geometry"/></mxCell><mxCell id="29" style="edgeStyle=orthogonalEdgeStyle;rounded=0;orthogonalLoop=1;jettySize=auto;html=1;exitX=1;exitY=0.5;exitDx=0;exitDy=0;entryX=0;entryY=0.5;entryDx=0;entryDy=0;" parent="95" source="27" target="26" edge="1"><mxGeometry relative="1" as="geometry"/></mxCell><mxCell id="27" value="Player" style="shape=hexagon;perimeter=hexagonPerimeter2;whiteSpace=wrap;html=1;fixedSize=1;" parent="95" vertex="1"><mxGeometry x="100" y="150" width="120" height="80" as="geometry"/></mxCell><mxCell id="30" value="board" style="shape=hexagon;perimeter=hexagonPerimeter2;whiteSpace=wrap;html=1;fixedSize=1;" parent="95" vertex="1"><mxGeometry x="600" y="150" width="120" height="80" as="geometry"/></mxCell><mxCell id="31" value="board" style="text;html=1;strokeColor=none;fillColor=none;align=center;verticalAlign=middle;whiteSpace=wrap;rounded=0;" parent="95" vertex="1"><mxGeometry x="490" y="175" width="60" height="30" as="geometry"/></mxCell><mxCell id="32" style="edgeStyle=orthogonalEdgeStyle;rounded=0;orthogonalLoop=1;jettySize=auto;html=1;exitX=0;exitY=0.5;exitDx=0;exitDy=0;entryX=1;entryY=0.5;entryDx=0;entryDy=0;" parent="95" source="30" target="31" edge="1"><mxGeometry relative="1" as="geometry"/></mxCell><mxCell id="33" value="- getBoard(Player player)" style="text;html=1;strokeColor=none;fillColor=none;align=center;verticalAlign=middle;whiteSpace=wrap;rounded=0;" parent="95" vertex="1"><mxGeometry x="620" y="230" width="140" height="30" as="geometry"/></mxCell><mxCell id="37" value="* board: Matrix[Tile]" style="text;html=1;strokeColor=none;fillColor=none;align=center;verticalAlign=middle;whiteSpace=wrap;rounded=0;" parent="95" vertex="1"><mxGeometry x="620" y="260" width="110" height="30" as="geometry"/></mxCell><mxCell id="38" value="- name" style="text;html=1;strokeColor=none;fillColor=none;align=center;verticalAlign=middle;whiteSpace=wrap;rounded=0;" parent="95" vertex="1"><mxGeometry x="120" y="230" width="50" height="30" as="geometry"/></mxCell><mxCell id="52" value="Tile" style="shape=hexagon;perimeter=hexagonPerimeter2;whiteSpace=wrap;html=1;fixedSize=1;" vertex="1" parent="95"><mxGeometry x="930" y="150" width="120" height="80" as="geometry"/></mxCell><mxCell id="53" value="Ship" style="shape=hexagon;perimeter=hexagonPerimeter2;whiteSpace=wrap;html=1;fixedSize=1;" vertex="1" parent="95"><mxGeometry x="1040" y="260" width="120" height="80" as="geometry"/></mxCell><mxCell id="65" style="edgeStyle=orthogonalEdgeStyle;rounded=0;orthogonalLoop=1;jettySize=auto;html=1;exitX=1;exitY=0.75;exitDx=0;exitDy=0;entryX=0.5;entryY=0;entryDx=0;entryDy=0;" edge="1" parent="95" source="52" target="53"><mxGeometry relative="1" as="geometry"><Array as="points"><mxPoint x="1100" y="207"/></Array></mxGeometry></mxCell><mxCell id="54" value="Water" style="shape=hexagon;perimeter=hexagonPerimeter2;whiteSpace=wrap;html=1;fixedSize=1;" vertex="1" parent="95"><mxGeometry x="800" y="260" width="120" height="80" as="geometry"/></mxCell><mxCell id="64" style="edgeStyle=orthogonalEdgeStyle;rounded=0;orthogonalLoop=1;jettySize=auto;html=1;exitX=0;exitY=0.75;exitDx=0;exitDy=0;" edge="1" parent="95" source="52" target="54"><mxGeometry relative="1" as="geometry"/></mxCell><mxCell id="55" value="wasHit" style="text;html=1;strokeColor=none;fillColor=none;align=center;verticalAlign=middle;whiteSpace=wrap;rounded=0;" vertex="1" parent="95"><mxGeometry x="950" y="230" width="60" height="30" as="geometry"/></mxCell><mxCell id="83" value="length" style="text;html=1;strokeColor=none;fillColor=none;align=center;verticalAlign=middle;whiteSpace=wrap;rounded=0;" vertex="1" parent="95"><mxGeometry x="1060" y="340" width="60" height="30" as="geometry"/></mxCell><mxCell id="84" value="- shoot(X, Y): bool" style="text;html=1;strokeColor=none;fillColor=none;align=center;verticalAlign=middle;whiteSpace=wrap;rounded=0;" vertex="1" parent="95"><mxGeometry x="620" y="285" width="110" height="30" as="geometry"/></mxCell><mxCell id="106" style="edgeStyle=orthogonalEdgeStyle;rounded=0;orthogonalLoop=1;jettySize=auto;html=1;exitX=1;exitY=0.25;exitDx=0;exitDy=0;entryX=0;entryY=0.5;entryDx=0;entryDy=0;fontColor=#FFFFFF;fillColor=#1ba1e2;strokeColor=#006EAF;strokeWidth=3;" edge="1" parent="95" source="85" target="84"><mxGeometry relative="1" as="geometry"/></mxCell><mxCell id="85" value="- shoot(X, Y): bool" style="text;html=1;strokeColor=none;fillColor=none;align=center;verticalAlign=middle;whiteSpace=wrap;rounded=0;" vertex="1" parent="95"><mxGeometry x="120" y="260" width="100" height="30" as="geometry"/></mxCell><mxCell id="88" value="finished" style="text;html=1;strokeColor=none;fillColor=none;align=center;verticalAlign=middle;whiteSpace=wrap;rounded=0;" vertex="1" parent="95"><mxGeometry x="420" y="110" width="60" height="30" as="geometry"/></mxCell><mxCell id="89" value="trefferCount" style="text;html=1;strokeColor=none;fillColor=none;align=center;verticalAlign=middle;whiteSpace=wrap;rounded=0;" vertex="1" parent="95"><mxGeometry x="1060" y="370" width="70" height="30" as="geometry"/></mxCell><mxCell id="90" value="- treffer: int" style="text;html=1;strokeColor=none;fillColor=none;align=center;verticalAlign=middle;whiteSpace=wrap;rounded=0;" vertex="1" parent="95"><mxGeometry x="120" y="290" width="70" height="30" as="geometry"/></mxCell><mxCell id="91" value="currentPlayer" style="text;html=1;strokeColor=none;fillColor=none;align=center;verticalAlign=middle;whiteSpace=wrap;rounded=0;" vertex="1" parent="95"><mxGeometry x="420" y="140" width="70" height="30" as="geometry"/></mxCell><mxCell id="101" style="edgeStyle=orthogonalEdgeStyle;rounded=0;orthogonalLoop=1;jettySize=auto;html=1;exitX=0.5;exitY=1;exitDx=0;exitDy=0;entryX=0;entryY=0.5;entryDx=0;entryDy=0;fontColor=#FFFFFF;fillColor=#1ba1e2;strokeColor=#006EAF;strokeWidth=3;" edge="1" parent="1" source="100" target="85"><mxGeometry relative="1" as="geometry"/></mxCell><mxCell id="100" value="&lt;font color=&quot;#ffffff&quot;&gt;shoot(X, Y, player)&lt;/font&gt;" style="text;html=1;strokeColor=none;fillColor=none;align=center;verticalAlign=middle;whiteSpace=wrap;rounded=0;fontColor=#ff69b4;" vertex="1" parent="1"><mxGeometry x="140" y="470" width="100" height="30" as="geometry"/></mxCell><mxCell id="159" value="" style="group" vertex="1" connectable="0" parent="1"><mxGeometry x="320" y="560" width="1630" height="1910" as="geometry"/></mxCell><mxCell id="158" value="" style="rounded=0;whiteSpace=wrap;html=1;fontColor=#FFFFFF;" vertex="1" parent="159"><mxGeometry width="1630" height="1910" as="geometry"/></mxCell><mxCell id="107" value="" style="rounded=0;whiteSpace=wrap;html=1;fontColor=#FFFFFF;" vertex="1" parent="159"><mxGeometry x="120" y="950" width="600" height="360" as="geometry"/></mxCell><mxCell id="108" value="Schiffe versenken" style="rounded=0;whiteSpace=wrap;html=1;fontColor=#FFFFFF;" vertex="1" parent="159"><mxGeometry x="120" y="930" width="600" height="20" as="geometry"/></mxCell><mxCell id="109" value="X" style="text;html=1;strokeColor=#6F0000;fillColor=#a20025;align=center;verticalAlign=middle;whiteSpace=wrap;rounded=0;fontColor=#ffffff;" vertex="1" parent="159"><mxGeometry x="700" y="930" width="20" height="20" as="geometry"/></mxCell><mxCell id="110" value="" style="rounded=0;whiteSpace=wrap;html=1;fontColor=#FFFFFF;" vertex="1" parent="159"><mxGeometry x="120" y="950" width="600" height="40" as="geometry"/></mxCell><mxCell id="111" value="Gegner: &amp;lt;name&amp;gt;" style="text;html=1;strokeColor=none;fillColor=none;align=center;verticalAlign=middle;whiteSpace=wrap;rounded=0;fontColor=#FFFFFF;" vertex="1" parent="159"><mxGeometry x="120" y="955" width="100" height="30" as="geometry"/></mxCell><mxCell id="112" value="DU BIST DRAN!" style="text;html=1;strokeColor=none;fillColor=none;align=center;verticalAlign=middle;whiteSpace=wrap;rounded=0;fontColor=#FFFFFF;" vertex="1" parent="159"><mxGeometry x="375" y="955" width="90" height="30" as="geometry"/></mxCell><mxCell id="113" value="" style="ellipse;whiteSpace=wrap;html=1;aspect=fixed;fontColor=#ffffff;fillColor=#008a00;strokeColor=#005700;" vertex="1" parent="159"><mxGeometry x="700" y="966.25" width="7.5" height="7.5" as="geometry"/></mxCell><mxCell id="114" value="verbindung prüfen" style="rounded=0;whiteSpace=wrap;html=1;fontColor=#FFFFFF;" vertex="1" parent="159"><mxGeometry x="590" y="960" width="100" height="20" as="geometry"/></mxCell><mxCell id="116" style="edgeStyle=orthogonalEdgeStyle;rounded=0;orthogonalLoop=1;jettySize=auto;html=1;exitX=0;exitY=0.5;exitDx=0;exitDy=0;entryX=1;entryY=0.5;entryDx=0;entryDy=0;strokeWidth=1;fontColor=#FFFFFF;" edge="1" parent="159" source="115" target="113"><mxGeometry relative="1" as="geometry"><Array as="points"><mxPoint x="730" y="970"/></Array></mxGeometry></mxCell><mxCell id="115" value="url tooltip" style="text;html=1;strokeColor=none;fillColor=none;align=center;verticalAlign=middle;whiteSpace=wrap;rounded=0;fontColor=#FFFFFF;" vertex="1" parent="159"><mxGeometry x="730" y="940" width="60" height="30" as="geometry"/></mxCell><mxCell id="121" value="" style="whiteSpace=wrap;html=1;aspect=fixed;fontColor=#ffffff;fillColor=#0050ef;strokeColor=#001DBC;" vertex="1" parent="159"><mxGeometry x="140" y="1040" width="210" height="210" as="geometry"/></mxCell><mxCell id="123" value="" style="whiteSpace=wrap;html=1;aspect=fixed;fontColor=#ffffff;fillColor=#0050ef;strokeColor=#001DBC;" vertex="1" parent="159"><mxGeometry x="430" y="1040" width="210" height="210" as="geometry"/></mxCell><mxCell id="124" value="Meine Flotte" style="text;html=1;strokeColor=none;fillColor=none;align=center;verticalAlign=middle;whiteSpace=wrap;rounded=0;fontColor=#FFFFFF;" vertex="1" parent="159"><mxGeometry x="210" y="1000" width="70" height="30" as="geometry"/></mxCell><mxCell id="125" value="Gegnerische Flotte" style="text;html=1;strokeColor=none;fillColor=none;align=center;verticalAlign=middle;whiteSpace=wrap;rounded=0;fontColor=#FFFFFF;" vertex="1" parent="159"><mxGeometry x="480" y="1000" width="110" height="30" as="geometry"/></mxCell><mxCell id="127" value="" style="rounded=0;whiteSpace=wrap;html=1;fontColor=#FFFFFF;" vertex="1" parent="159"><mxGeometry x="120" y="510" width="600" height="360" as="geometry"/></mxCell><mxCell id="128" value="Schiffe versenken" style="rounded=0;whiteSpace=wrap;html=1;fontColor=#FFFFFF;" vertex="1" parent="159"><mxGeometry x="120" y="490" width="600" height="20" as="geometry"/></mxCell><mxCell id="129" value="" style="rounded=0;whiteSpace=wrap;html=1;fontColor=#FFFFFF;" vertex="1" parent="159"><mxGeometry x="120" y="510" width="600" height="40" as="geometry"/></mxCell><mxCell id="130" value="WÄHLE DEINEN NAMEN" style="text;html=1;strokeColor=none;fillColor=none;align=center;verticalAlign=middle;whiteSpace=wrap;rounded=0;fontColor=#FFFFFF;" vertex="1" parent="159"><mxGeometry x="347.5" y="515" width="145" height="30" as="geometry"/></mxCell><mxCell id="131" value="" style="rounded=0;whiteSpace=wrap;html=1;fontColor=#FFFFFF;" vertex="1" parent="159"><mxGeometry x="275" y="630" width="290" height="60" as="geometry"/></mxCell><mxCell id="132" value="LOS!" style="rounded=0;whiteSpace=wrap;html=1;fontColor=#FFFFFF;" vertex="1" parent="159"><mxGeometry x="353.75" y="710" width="132.5" height="60" as="geometry"/></mxCell><mxCell id="133" value="" style="rounded=0;whiteSpace=wrap;html=1;fontColor=#FFFFFF;" vertex="1" parent="159"><mxGeometry x="800" y="510" width="600" height="360" as="geometry"/></mxCell><mxCell id="134" value="Schiffe versenken" style="rounded=0;whiteSpace=wrap;html=1;fontColor=#FFFFFF;" vertex="1" parent="159"><mxGeometry x="800" y="490" width="600" height="20" as="geometry"/></mxCell><mxCell id="135" value="" style="rounded=0;whiteSpace=wrap;html=1;fontColor=#FFFFFF;" vertex="1" parent="159"><mxGeometry x="800" y="510" width="600" height="40" as="geometry"/></mxCell><mxCell id="136" value="WÄHLE DEINEN NAMEN" style="text;html=1;strokeColor=none;fillColor=none;align=center;verticalAlign=middle;whiteSpace=wrap;rounded=0;fontColor=#FFFFFF;" vertex="1" parent="159"><mxGeometry x="1027.5" y="515" width="145" height="30" as="geometry"/></mxCell><mxCell id="137" value="" style="rounded=0;whiteSpace=wrap;html=1;fontColor=#FFFFFF;" vertex="1" parent="159"><mxGeometry x="955" y="700" width="290" height="60" as="geometry"/></mxCell><mxCell id="138" value="LOS!" style="rounded=0;whiteSpace=wrap;html=1;fontColor=#FFFFFF;" vertex="1" parent="159"><mxGeometry x="1033.75" y="780" width="132.5" height="60" as="geometry"/></mxCell><mxCell id="139" value="Name:" style="text;html=1;strokeColor=none;fillColor=none;align=center;verticalAlign=middle;whiteSpace=wrap;rounded=0;fontColor=#FFFFFF;" vertex="1" parent="159"><mxGeometry x="275" y="600" width="60" height="30" as="geometry"/></mxCell><mxCell id="140" value="Name:" style="text;html=1;strokeColor=none;fillColor=none;align=center;verticalAlign=middle;whiteSpace=wrap;rounded=0;fontColor=#FFFFFF;" vertex="1" parent="159"><mxGeometry x="955" y="670" width="60" height="30" as="geometry"/></mxCell><mxCell id="141" value="" style="rounded=0;whiteSpace=wrap;html=1;fontColor=#FFFFFF;" vertex="1" parent="159"><mxGeometry x="955" y="610" width="290" height="60" as="geometry"/></mxCell><mxCell id="142" value="Server URL:/einladungslink:" style="text;html=1;strokeColor=none;fillColor=none;align=center;verticalAlign=middle;whiteSpace=wrap;rounded=0;fontColor=#FFFFFF;" vertex="1" parent="159"><mxGeometry x="955" y="580" width="155" height="30" as="geometry"/></mxCell><mxCell id="143" value="" style="rounded=0;whiteSpace=wrap;html=1;fontColor=#FFFFFF;" vertex="1" parent="159"><mxGeometry x="120" y="1470" width="600" height="360" as="geometry"/></mxCell><mxCell id="144" value="Schiffe versenken" style="rounded=0;whiteSpace=wrap;html=1;fontColor=#FFFFFF;" vertex="1" parent="159"><mxGeometry x="120" y="1450" width="600" height="20" as="geometry"/></mxCell><mxCell id="145" value="DU HAST GEWONNEN!" style="text;html=1;strokeColor=#005700;fillColor=#008a00;align=center;verticalAlign=middle;whiteSpace=wrap;rounded=0;fontColor=#ffffff;" vertex="1" parent="159"><mxGeometry x="350" y="1635" width="140" height="30" as="geometry"/></mxCell><mxCell id="146" value="" style="rounded=0;whiteSpace=wrap;html=1;fontColor=#FFFFFF;" vertex="1" parent="159"><mxGeometry x="760" y="1470" width="600" height="360" as="geometry"/></mxCell><mxCell id="147" value="Schiffe versenken" style="rounded=0;whiteSpace=wrap;html=1;fontColor=#FFFFFF;" vertex="1" parent="159"><mxGeometry x="760" y="1450" width="600" height="20" as="geometry"/></mxCell><mxCell id="148" value="DU HAST VERLOREN!" style="text;html=1;strokeColor=#6F0000;fillColor=#a20025;align=center;verticalAlign=middle;whiteSpace=wrap;rounded=0;fontColor=#ffffff;" vertex="1" parent="159"><mxGeometry x="990" y="1635" width="140" height="30" as="geometry"/></mxCell><mxCell id="149" value="- neues Spiel erzeugen&lt;br&gt;- einem Spiel beitreten" style="text;html=1;strokeColor=none;fillColor=none;align=center;verticalAlign=middle;whiteSpace=wrap;rounded=0;fontColor=#FFFFFF;" vertex="1" parent="159"><mxGeometry x="1410" y="600" width="130" height="40" as="geometry"/></mxCell><mxCell id="150" value="" style="rounded=0;whiteSpace=wrap;html=1;fontColor=#FFFFFF;" vertex="1" parent="159"><mxGeometry x="800" y="120" width="600" height="360" as="geometry"/></mxCell><mxCell id="151" value="Schiffe versenken" style="rounded=0;whiteSpace=wrap;html=1;fontColor=#FFFFFF;" vertex="1" parent="159"><mxGeometry x="800" y="100" width="600" height="20" as="geometry"/></mxCell><mxCell id="152" value="neues Spiel" style="rounded=0;whiteSpace=wrap;html=1;fontColor=#FFFFFF;" vertex="1" parent="159"><mxGeometry x="925" y="270" width="120" height="60" as="geometry"/></mxCell><mxCell id="153" value="Spiel beitreten" style="rounded=0;whiteSpace=wrap;html=1;fontColor=#FFFFFF;" vertex="1" parent="159"><mxGeometry x="1166.25" y="270" width="120" height="60" as="geometry"/></mxCell><mxCell id="154" value="" style="rounded=0;whiteSpace=wrap;html=1;fontColor=#FFFFFF;" vertex="1" parent="159"><mxGeometry x="650" y="1040" width="60" height="250" as="geometry"/></mxCell><mxCell id="155" value="Chat" style="text;html=1;strokeColor=none;fillColor=none;align=center;verticalAlign=middle;whiteSpace=wrap;rounded=0;fontColor=#FFFFFF;" vertex="1" parent="159"><mxGeometry x="648" y="1000" width="60" height="30" as="geometry"/></mxCell><mxCell id="161" value="updateGameState()" style="text;html=1;strokeColor=none;fillColor=none;align=center;verticalAlign=middle;whiteSpace=wrap;rounded=0;fontColor=#FFFFFF;" vertex="1" parent="1"><mxGeometry x="135" y="680" width="110" height="30" as="geometry"/></mxCell><mxCell id="162" value="sendMessage()" style="text;html=1;strokeColor=none;fillColor=none;align=center;verticalAlign=middle;whiteSpace=wrap;rounded=0;fontColor=#FFFFFF;" vertex="1" parent="1"><mxGeometry x="135" y="710" width="85" height="30" as="geometry"/></mxCell><mxCell id="164" value="httpClient" style="text;html=1;strokeColor=none;fillColor=none;align=center;verticalAlign=middle;whiteSpace=wrap;rounded=0;fontColor=#FFFFFF;" vertex="1" parent="1"><mxGeometry x="135" y="750" width="60" height="30" as="geometry"/></mxCell><mxCell id="165" value="games: ConcurrentHashMap&amp;lt;Base&amp;gt;" style="text;html=1;strokeColor=none;fillColor=none;align=center;verticalAlign=middle;whiteSpace=wrap;rounded=0;fontColor=#FFFFFF;" vertex="1" parent="1"><mxGeometry x="2500" y="350" width="200" height="30" as="geometry"/></mxCell><mxCell id="166" value="GET /join?id=&amp;lt;id&amp;gt;" style="text;html=1;strokeColor=none;fillColor=none;align=center;verticalAlign=middle;whiteSpace=wrap;rounded=0;fontColor=#FFFFFF;" vertex="1" parent="1"><mxGeometry x="2500" y="380" width="100" height="30" as="geometry"/></mxCell><mxCell id="167" value="GET /new" style="text;html=1;strokeColor=none;fillColor=none;align=center;verticalAlign=middle;whiteSpace=wrap;rounded=0;fontColor=#FFFFFF;" vertex="1" parent="1"><mxGeometry x="2500" y="410" width="60" height="30" as="geometry"/></mxCell><mxCell id="170" style="edgeStyle=orthogonalEdgeStyle;rounded=0;orthogonalLoop=1;jettySize=auto;html=1;exitX=0.25;exitY=1;exitDx=0;exitDy=0;entryX=0;entryY=0.5;entryDx=0;entryDy=0;strokeWidth=1;fontColor=#FFFFFF;" edge="1" parent="1" source="168" target="169"><mxGeometry relative="1" as="geometry"><Array as="points"><mxPoint x="2540" y="485"/></Array></mxGeometry></mxCell><mxCell id="168" value="POST /updategame?id=&amp;lt;id&amp;gt;" style="text;html=1;strokeColor=none;fillColor=none;align=center;verticalAlign=middle;whiteSpace=wrap;rounded=0;fontColor=#FFFFFF;" vertex="1" parent="1"><mxGeometry x="2500" y="440" width="160" height="30" as="geometry"/></mxCell><mxCell id="169" value="Header: accessToken" style="text;html=1;strokeColor=none;fillColor=none;align=center;verticalAlign=middle;whiteSpace=wrap;rounded=0;fontColor=#FFFFFF;" vertex="1" parent="1"><mxGeometry x="2560" y="470" width="125" height="30" as="geometry"/></mxCell><mxCell id="171" value="GET /status?id=&amp;lt;id&amp;gt;" style="text;html=1;strokeColor=none;fillColor=none;align=center;verticalAlign=middle;whiteSpace=wrap;rounded=0;fontColor=#FFFFFF;" vertex="1" parent="1"><mxGeometry x="2500" y="500" width="120" height="30" as="geometry"/></mxCell></root></mxGraphModel></diagram></mxfile>